PathFileType	4	(X/Y/Z)	30_1_25_p0_0-399.trc
DataRate	CameraRate	NumFrames	NumMarkers	Units	OrigDataRate	OrigDataStartFrame	OrigNumFrames
60.0	60.0	6	27	m	60.0	200	400
Frame#	Time	RHip			RKnee			RAnkle			RBigToe			RSmallToe			RHeel			LHip			LKnee			LAnkle			LBigToe			LSmallToe			LHeel			Neck			Head			Nose			RShoulder			RElbow			RWrist			RThumb			RIndex			RPinky			LShoulder			LElbow			LWrist			LThumb			LIndex			LPinky			
		X1	Y1	Z1	X2	Y2	Z2	X3	Y3	Z3	X4	Y4	Z4	X5	Y5	Z5	X6	Y6	Z6	X7	Y7	Z7	X8	Y8	Z8	X9	Y9	Z9	X10	Y10	Z10	X11	Y11	Z11	X12	Y12	Z12	X13	Y13	Z13	X14	Y14	Z14	X15	Y15	Z15	X16	Y16	Z16	X17	Y17	Z17	X18	Y18	Z18	X19	Y19	Z19	X20	Y20	Z20	X21	Y21	Z21	X22	Y22	Z22	X23	Y23	Z23	X24	Y24	Z24	X25	Y25	Z25	X26	Y26	Z26	X27	Y27	Z27	
200	3.3333333333333335	0.23667064020248577	0.40823581658404284	0.975150187005619	0.2539761847956409	0.43743062312905473	1.3844996045636238	0.2735162989894521	0.5192923143630178	1.7772941760447885	0.2583476308163279	0.3053970435957341	1.7877715396586504	0.3196895787939418	0.34558449091837495	1.7862393603004496	0.2536904617819252	0.6144155378420394	1.8667002035430629	0.057959819659995464	0.42805836601395125	0.9872932510071172	0.06515034723638148	0.5160591264376767	1.43678155765464	0.08065107024186136	0.5156701687980942	1.782297489561016	0.08956358076894406	0.3145758255172563	1.7953606587911444	0.032683670103212055	0.39047391811907706	1.8192623239140815	0.09175060139755643	0.5547924977093666	1.8304830916370904	0.15711869851444987	0.45018540645688093	0.5009012086355363	0.1501221299722298	0.3878769334220659	0.26280409332784554	0.14086814235050177	0.33121830416072706	0.4175838643323166	0.2837277162814936	0.4477312745342688	0.5541631143409829	0.3639552329886163	0.35001334358241776	0.7319046160871879	0.26765268405078446	0.3507777482983332	0.5504673372488351	0.21946160511873875	0.4067385349008454	0.4759566881855294	0.22137408614287787	0.34552847746562465	0.466044927182185	0.24217058227509475	0.3424262410956518	0.5018904768904907	0.010737650663272712	0.45345315164824246	0.5425303057703257	-0.05631924249686246	0.3350784650499863	0.7061985914058778	0.002035758888758505	0.41597114823378883	0.537705045905626	0.037856932182769476	0.39594303444008716	0.4629468577899393	0.03432051899930135	0.3864429499346077	0.4243420918830584	0.0258150147909181	0.35861945337657286	0.4505114526885559
201	3.35	0.23664511055520754	0.40825747767727577	0.9751525073429698	0.2549441287276878	0.4387628663511046	1.3891725863232678	0.27352918106832386	0.5194402011582914	1.7775065876702716	0.26277059256822455	0.317481178117812	1.795644324803158	0.31615808713186655	0.36016232697384454	1.7961676077010114	0.25347497663057683	0.6139839268170912	1.8664185272768559	0.05798169796793049	0.427792410277277	0.9870971724149293	0.06600876511156477	0.5172259414361188	1.4420185990052379	0.08070536390123445	0.5157231232992665	1.7823126119291315	0.0895884610460015	0.3143898389603233	1.7952668690636162	0.03347967944264967	0.37541815701685766	1.8093047148948664	0.09176120204440265	0.5547541008443952	1.8304297309044695	0.15740271375277798	0.44968758392554686	0.5039845578511193	0.15019378833968622	0.3879607562114062	0.26273778168145867	0.14084011422426612	0.33109593518112324	0.41761541975857913	0.28356190201013487	0.44767670910834184	0.5539940120572525	0.3639672095683132	0.3499115479785356	0.731728806733641	0.26785597230909164	0.351046984645747	0.5503783191350438	0.22345782372698758	0.40861236484984875	0.47582465936517104	0.22550396063982203	0.3493474381549152	0.45939474168874367	0.2514987346472121	0.35935610182238986	0.49443196791552346	0.0067118014600008385	0.4518484797437129	0.5425512605643575	-0.05627903220942636	0.33499907739228935	0.7060817873034692	0.001869031057497775	0.41543582391485595	0.5302564927728444	0.037699134160289666	0.3949133159145317	0.4593014811614719	0.034046373716395816	0.3856394750753577	0.42059617561433765	0.02579803459528342	0.35863986214104326	0.4506185670723416
202	3.3666666666666667	0.2365960222499676	0.4082023638196707	0.9752243015842829	0.25500466008581574	0.4384912713306008	1.3888934786773457	0.2735244313370117	0.5191694916686626	1.7773149914166542	0.2622776348006439	0.3065233265404256	1.7887333771514147	0.31971236298730404	0.34538832920677637	1.7864505057415614	0.2535055678901692	0.6140808750131095	1.8664555860498186	0.05784629065990045	0.4278560773222977	0.9872708598597992	0.06605887019148782	0.5173269736076569	1.4422004473604146	0.08069483012916799	0.5157404473301616	1.7823642578218564	0.08957638216031809	0.3143685390275708	1.7953847480088971	0.02864144582788705	0.38880338625304756	1.8183209681771213	0.09174874867264954	0.5548824012240458	1.8305986298087558	0.16126855517295005	0.461358963770531	0.5058431517524871	0.15405695108498538	0.39005411327016154	0.26282983184742753	0.1409212671723011	0.3313175404585325	0.41751052309480835	0.28371923914142205	0.44762253136988606	0.5573026110442834	0.3688092416523383	0.36091707202525425	0.7385147586759193	0.2751124577654706	0.34937539658372535	0.5502095485463474	0.22805196554046284	0.3958588609632416	0.47683142808063345	0.23504980776493983	0.3559310291930341	0.46339774798812494	0.2634672694804876	0.355619110177797	0.5098156571975963	0.00784393837678592	0.4541047249316718	0.5472947870445384	-0.055907720774843975	0.33501305988420294	0.7030975598433176	0.0018419180975299298	0.41582369023672394	0.5302266646211206	0.037715238961936515	0.3949447218337426	0.459191750437704	0.03409438379607488	0.38591346081024114	0.42040389533832845	0.021955032451349506	0.3696357822593642	0.4552135961169096
203	3.3833333333333333	0.23297261638705524	0.42165801801022035	0.9803918705154651	0.2540115426541351	0.4374527985391082	1.3842064008859314	0.273574498587149	0.5195334301200847	1.7775431350176925	0.26230265503644246	0.3067371559048889	1.7887977830418955	0.3161323671458948	0.3598322932372623	1.7962477229145146	0.25362506540516155	0.6144224261731099	1.8667278557223181	0.05336524327144392	0.4414493694971204	0.9923528875252416	0.06606060856857211	0.517483492761035	1.4422761708669947	0.08070163391763786	0.5157180429507371	1.7823134335276858	0.08850352850134136	0.3132755248951354	1.7896803054408734	0.028639534639343652	0.38886731576653566	1.8183348307052636	0.0917383095159703	0.5549111399341098	1.830330335293039	0.16117458625926878	0.4613390988050426	0.5060738138014038	0.154172829168394	0.39005856565023406	0.26281106639659735	0.14085918535603936	0.3313071022278419	0.41748891014997186	0.2875820145422013	0.4589155396552787	0.5594040621348535	0.36890916334674473	0.3609311577068126	0.7384876794751601	0.2840074113725368	0.3611360454760939	0.5594732823400381	0.2397913410187543	0.39498580785393883	0.47618000504936475	0.2432715678016573	0.36795124710456667	0.464939133803572	0.27280812219352907	0.35040686376561725	0.5087419006843479	0.008117031623871482	0.4545202052459567	0.5440382012203399	-0.05587574831166697	0.33497702657755346	0.7030637751015968	0.0020792265705462205	0.41555462309538094	0.5302726636247492	0.03409171817229133	0.4066285616635698	0.46563372938987024	0.030381550179754187	0.39860150695246727	0.4196056268715581	0.022112284678365644	0.36975126176608397	0.4531970727773919
204	3.4	0.2373508636056565	0.4091065384731594	0.9796575408959092	0.2508349498594992	0.4361849342552269	1.3880851724691523	0.2735259654575365	0.5190291365624446	1.7772628306332605	0.26778251700886746	0.31884159052989347	1.7914729681961443	0.31978460723613666	0.3459820196198299	1.7863975108262602	0.25336662024814327	0.6136045563835385	1.8661067461810916	0.05770191525251601	0.4278752659057451	0.987581996439899	0.06604938089665874	0.51724303323161	1.4422623382950235	0.08065264220075852	0.515726343338132	1.782329193585103	0.0884767262719264	0.3134112282146237	1.7896489515616585	0.032157985394645115	0.39203393196818154	1.816013141085279	0.09170577009365181	0.5547404985829077	1.8302848482638803	0.1615348295765527	0.46175230931615785	0.5022507492772795	0.15761272160608514	0.40098751348160955	0.26001701530181826	0.14448942326901484	0.3328035814421473	0.41758063182041727	0.2878624262188418	0.4594532133468736	0.5559263576532594	0.36897692092869205	0.36106372853464097	0.7384775024404059	0.28480188453860733	0.38514522866434214	0.5648866884747352	0.23617327742527253	0.40847314840471083	0.478854814326428	0.24761589406817325	0.37161909942008475	0.4651922272104716	0.2721305515788049	0.3700219196296501	0.5123629330779325	0.012331497617542193	0.4570951258461494	0.5443295876670449	-0.051680573644981534	0.3237098310231349	0.699634890464244	0.006595896157924226	0.40332404281204953	0.5277297581632371	0.036509487598923356	0.4185525998216797	0.4676194725391201	0.03317672487565016	0.4091936435253458	0.4212147807630242	0.022107802766136154	0.36955588219939794	0.4551817053372655
205	3.4166666666666665	0.23380258316029917	0.42253505076048803	0.9846701524162547	0.25043785140152797	0.437584092259972	1.3846809285003516	0.2734331586492433	0.5188263051747262	1.777082285492462	0.2596967548260895	0.30418010330206796	1.7865112715678504	0.3160799437280312	0.3596686463834101	1.7962136172691447	0.25774318660431306	0.6170530833568721	1.868155353559069	0.05794164563118922	0.4283821399170041	0.9876287788563665	0.0661195832577023	0.5172970670084251	1.442201330536546	0.08023715650278836	0.5171967540335733	1.7789250787704762	0.08845458019511787	0.3133981149879204	1.7896484780259105	0.0321198898239034	0.392158487359269	1.8163461495514623	0.09528553853451975	0.5681793870723567	1.8385390999746976	0.1622591993368402	0.4626443239048971	0.5061715271845258	0.1576087888019674	0.40082252258968054	0.2600021694237627	0.14443797960003313	0.332823768657512	0.41759116061111595	0.28784859493206183	0.4592189305398674	0.5560089821082563	0.36894945318027617	0.36080442135933394	0.7382388253829573	0.28376301064751563	0.36236635593631195	0.5562874690951649	0.23609829864568335	0.40802078368943945	0.47858368388638045	0.24811256947309626	0.37198584354213843	0.46519124872310386	0.27332946456980706	0.3520080778654288	0.5043254708993526	0.012613100212404416	0.4575880601664647	0.5480874171878303	-0.051664661687591665	0.3236490522538259	0.6996347894822273	0.011225485178340475	0.3909162648625426	0.5287050415867193	0.04396759881245211	0.4323571424294685	0.4702420311117696	0.04059594939333188	0.4217846843380026	0.4263048685658703	0.024326108222354703	0.38127100100615935	0.454480443826273
